The Specials - A Message To You Rudy - (Jimmy fallon-13-4-2010)[hdtv-Divx]

Recorded From The Jimmy Fallon Show On The 4th April 2010. This was the specials first performance On US TV for Thirty years.






General

Complete name : A Message To You Rudy.divx
Format : AVI
Format/Info : Audio Video Interleave
File size : 43.7 MiB
Duration : 4mn 3s
Overall bit rate : 1 504 Kbps

Video
ID : 0
Format : MPEG-4 Visual
Format settings, BVOP : Yes
Format settings, QPel : No
Format settings, GMC : No warppoints
Format settings, Matrix : Default (H.263)
Muxing mode : Packed bitstream
Codec ID : DX50
Codec ID/Hint : DivX 5
Duration : 4mn 3s
Bit rate : 1 301 Kbps
Width : 624 pixels
Height : 352 pixels
Display aspect ratio : 16:9
Frame rate : 29.970 fps
Resolution : 8 bits
Colorimetry : 4:2:0
Scan type : Progressive
Bits/(Pixel*Frame) : 0.198
Stream size : 37.8 MiB (86%)
Title : Video
Writing library : DivX 6.8.2 (UTC 2008-05-17)

Audio
ID : 1
Format : AC-3
Format/Info : Audio Coding 3
Codec ID : 2000
Duration : 4mn 3s
Bit rate mode : Constant
Bit rate : 192 Kbps
Channel(s) : 2 channels
Channel positions : Front: L R
Sampling rate : 48.0 KHz
Stream size : 5.58 MiB (13%)
Alignment : Split accross interleaves
Interleave, duration : 33 ms (1.00 video frame)
Interleave, preload duration : 500 ms 